<?xml version="1.0" standalone="no"?>
<!DOCTYPE svg PUBLIC "-//W3C//DTD SVG 1.0//EN" "http://www.w3.org/TR/2001/REC-SVG-20010904/DTD/svg10.dtd">
<svg width="120px" height="120px" viewBox="0 0 200 200" xmlns="http://www.w3.org/2000/svg" xmlns:xlink="http://www.w3.org/1999/xlink">
<circle cx="100" cy="100" r="98" style="fill: white; stroke: #154485; stroke-width: 4;" />
<text x="93.0" y="37.0" style="font-family: sans-serif; font-size: 18pt;">N</text>
<line x1="100.0" y1="0.0" x2="100.0" y2="15.0" style="stroke: black; stroke-width: 4;" />
<line x1="74.11809548974793" y1="3.4074173710931746" x2="76.70628594077314" y2="13.066675633983849" style="stroke: black; stroke-width: 2;" />
<line x1="50.00000000000001" y1="13.397459621556123" x2="55.00000000000001" y2="22.05771365940052" style="stroke: black; stroke-width: 2;" />
<text x="36.50252531694168" y="57.50252531694167" style="font-family: sans-serif; font-size: 18pt;">NW</text>
<line x1="29.28932188134526" y1="29.289321881345245" x2="39.895923599143465" y2="39.89592359914346" style="stroke: black; stroke-width: 4;" />
<line x1="13.397459621556138" y1="49.999999999999986" x2="22.05771365940052" y2="54.99999999999999" style="stroke: black; stroke-width: 2;" />
<line x1="3.4074173710931746" y1="74.11809548974793" x2="13.066675633983849" y2="76.70628594077314" style="stroke: black; stroke-width: 2;" />
<text x="23.0" y="107.0" style="font-family: sans-serif; font-size: 18pt;">W</text>
<line x1="0.0" y1="100.0" x2="15.0" y2="100.0" style="stroke: black; stroke-width: 4;" />
<line x1="3.4074173710931746" y1="125.88190451025208" x2="13.066675633983849" y2="123.29371405922687" style="stroke: black; stroke-width: 2;" />
<line x1="13.397459621556123" y1="149.99999999999997" x2="22.05771365940052" y2="144.99999999999997" style="stroke: black; stroke-width: 2;" />
<text x="36.50252531694167" y="156.49747468305833" style="font-family: sans-serif; font-size: 18pt;">SW</text>
<line x1="29.289321881345245" y1="170.71067811865476" x2="39.89592359914346" y2="160.10407640085654" style="stroke: black; stroke-width: 4;" />
<line x1="50.00000000000001" y1="186.60254037844388" x2="55.00000000000001" y2="177.94228634059948" style="stroke: black; stroke-width: 2;" />
<line x1="74.1180954897479" y1="196.59258262890683" x2="76.70628594077311" y2="186.93332436601614" style="stroke: black; stroke-width: 2;" />
<text x="92.99999999999999" y="177.0" style="font-family: sans-serif; font-size: 18pt;">S</text>
<line x1="99.99999999999999" y1="200.0" x2="99.99999999999999" y2="185.0" style="stroke: black; stroke-width: 4;" />
<line x1="125.88190451025208" y1="196.59258262890683" x2="123.29371405922687" y2="186.93332436601617" style="stroke: black; stroke-width: 2;" />
<line x1="150.0" y1="186.60254037844385" x2="145.0" y2="177.94228634059948" style="stroke: black; stroke-width: 2;" />
<text x="135.49747468305833" y="156.49747468305833" style="font-family: sans-serif; font-size: 18pt;">SE</text>
<line x1="170.71067811865476" y1="170.71067811865476" x2="160.10407640085654" y2="160.10407640085657" style="stroke: black; stroke-width: 4;" />
<line x1="186.60254037844385" y1="150.00000000000006" x2="177.94228634059945" y2="145.00000000000006" style="stroke: black; stroke-width: 2;" />
<line x1="196.59258262890683" y1="125.88190451025207" x2="186.93332436601617" y2="123.29371405922686" style="stroke: black; stroke-width: 2;" />
<text x="163.0" y="107.00000000000001" style="font-family: sans-serif; font-size: 18pt;">E</text>
<line x1="200.0" y1="100.00000000000001" x2="185.0" y2="100.00000000000001" style="stroke: black; stroke-width: 4;" />
<line x1="196.59258262890683" y1="74.11809548974797" x2="186.93332436601617" y2="76.70628594077317" style="stroke: black; stroke-width: 2;" />
<line x1="186.60254037844385" y1="49.999999999999986" x2="177.94228634059948" y2="54.99999999999999" style="stroke: black; stroke-width: 2;" />
<text x="135.49747468305833" y="57.502525316941686" style="font-family: sans-serif; font-size: 18pt;">NE</text>
<line x1="170.71067811865476" y1="29.28932188134526" x2="160.10407640085657" y2="39.89592359914347" style="stroke: black; stroke-width: 4;" />
<line x1="150.00000000000006" y1="13.397459621556166" x2="145.00000000000006" y2="22.057713659400548" style="stroke: black; stroke-width: 2;" />
<line x1="125.88190451025207" y1="3.4074173710931746" x2="123.29371405922686" y2="13.066675633983849" style="stroke: black; stroke-width: 2;" />
<polygon points="100 20 120 60 105 40 110 170 100 150 90 170 95 40 80 60" style="fill: red; fill-opacity: 0.5;" transform="rotate(243,100,100)" />
<circle cx="100" cy="100" r="5" style="fill: #EE5252; stroke: #F25B5B; stroke-width: 2;" />
</svg>
